<svg xmlns="http://www.w3.org/2000/svg" width="24" height="24" viewBox="0 0 1253.3333 1034.6667">
  <path fill="#ffffff" d="m 242.66665,1017.1776 c -6.96667,-0.6173 -20.07206,-2.9756 -29.1231,-5.2406 -47.27184,-11.8297 -89.45182,-36.54913 -120.284126,-70.49206 -23.309163,-25.6608 -45.042789,-62.4926 -57.303358,-97.11154 -2.447904,-6.9119 -1.999462,-9.24486 0.888237,-4.62092 4.706588,7.53645 24.681299,30.7049 35.473744,41.14561 31.405873,30.38232 65.651073,49.79893 105.549983,59.84555 22.86613,5.75774 34.61738,7.29643 55.72398,7.29643 71.08395,0 140.48604,-34.1699 194.6126,-95.81691 17.91676,-20.40615 30.47661,-37.1082 44.01634,-58.53277 5.74513,-9.09079 10.44569,-16.793 10.44569,-17.11602 0,-0.32301 1.39372,-2.82538 3.09716,-5.56081 4.89387,-7.8587 25.44955,-47.95445 30.23364,-58.9735 2.38791,-5.5 6.42869,-14.80001 8.97951,-20.66667 19.13759,-44.01488 34.18354,-82.38505 53.06775,-135.33335 57.70874,-161.80611 67.98747,-188.93697 94.71445,-250.00002 16.26661,-37.16429 47.89735,-96.525 63.58755,-119.33334 49.67902,-72.21682 108.66777,-121.768647 173.65324,-145.872493 50.27612,-18.647982 92.89176,-22.713123 139.33336,-13.291122 33.7378,6.844682 73.0392,26.427653 102.6719,51.158965 35.1695,29.35234 61.8375,69.37603 78.582,117.93688 8.419,24.41621 7.5131,25.11441 -6.5873,5.07679 -12.1646,-17.28675 -35.9359,-42.2294 -54.1783,-56.84807 -30.1635,-24.17179 -62.9833,-39.42764 -102.7526,-47.763286 -20.8938,-4.37936 -58.8715,-4.370699 -79.06906,0.01803 -93.10893,20.231673 -164.65975,85.072313 -223.91703,202.917643 -19.18283,38.14901 -39.14062,84.31513 -54.1821,125.33335 -3.89926,10.63333 -9.58064,25.93333 -12.62528,34 -8.19617,21.71549 -23.80179,64.38868 -39.25187,107.33334 -7.51913,20.9 -15.50906,42.8 -17.7554,48.66667 -2.24633,5.86667 -8.59742,22.66667 -14.11353,37.33334 -39.99623,106.3451 -76.71041,177.33679 -119.292,230.66668 -15.66932,19.62452 -48.29763,52.54659 -66.06139,66.65615 -48.47188,38.50068 -102.90751,61.68735 -157.94263,67.27525 -15.38607,1.5622 -21.7339,1.5484 -40.19206,-0.087 z M 354.59569,775.57615 c -3.26098,-1.73712 -12.52905,-7.22613 -20.59571,-12.19778 -21.10345,-13.00651 -77.19575,-47.17413 -116.66666,-71.06542 -18.7,-11.3189 -34.60805,-21.07542 -35.35122,-21.68115 -0.74317,-0.60574 -15.44317,-9.45239 -32.66667,-19.65922 -17.22349,-10.20684 -39.41544,-23.52902 -49.315436,-29.60486 -9.9,-6.07584 -23.562934,-14.38741 -30.362075,-18.47016 C 48.257783,590.0592 33.792418,574.47745 27.68904,557.71123 c -3.40149,-9.34402 -4.650525,-30.64027 -2.482591,-42.32855 1.865485,-10.05764 8.013105,-23.26059 15.119941,-32.47237 6.882831,-8.92143 19.103103,-17.07471 85.9508,-57.34575 27.71421,-16.69587 74.98946,-45.27453 105.05613,-63.50814 102.08681,-61.90948 127.19983,-76.71253 130.15124,-76.71862 2.11758,-0.004 6.78445,9.03259 10.67038,20.66222 2.79138,8.35391 2.11732,33.8141 -1.22292,46.19138 -6.70841,24.85806 -18.34904,39.42425 -46.08542,57.66771 -10.45498,6.87672 -24.67251,15.78116 -31.5945,19.78767 -6.922,4.0065 -22.18545,13.15173 -33.91878,20.32273 -11.73334,7.17101 -24.63334,14.97579 -28.66667,17.34395 -17.07464,10.02536 -103.41113,62.30114 -104.25039,63.12246 -1.00946,0.98787 18.41225,13.37783 56.25039,35.8846 13.56667,8.06968 35.16667,21.07451 48,28.89963 12.83333,7.82511 41.4784,25.08984 63.65571,38.36607 41.75801,24.99801 51.95915,32.59176 61.94972,46.1155 14.4325,19.53656 21.05474,47.94019 16.38989,70.29834 -2.46922,11.83475 -6.58527,22.75329 -9.93987,26.36725 -2.09944,2.26175 -2.46161,2.22649 -8.12641,-0.79116 z m 549.39145,-1.21444 c -18.14449,-29.58826 -12.05665,-73.20314 14.28006,-102.30615 9.14668,-10.10741 20.83678,-17.94277 79.06607,-52.9945 26.76663,-16.11248 54.66663,-33.01992 62.00003,-37.5721 7.3333,-4.55217 28.6333,-17.40034 47.3333,-28.55147 18.7,-11.15114 33.946,-20.8739 33.88,-21.60613 -0.066,-0.73222 -25.2661,-16.47632 -56,-34.98689 -30.734,-18.51056 -62.48,-37.80627 -70.5467,-42.87936 -8.0666,-5.07309 -22.46663,-13.83025 -31.99996,-19.46034 -53.76921,-31.75445 -67.8599,-42.81592 -77.20589,-60.60813 -5.39995,-10.28004 -9.87752,-26.33285 -10.98881,-39.39661 -1.39343,-16.38051 3.77738,-38.82424 10.83508,-47.02931 l 3.06643,-3.56493 16.47993,10.14038 c 56.85409,34.98332 73.32404,45.06715 103.81322,63.56032 18.7,11.34245 48.7,29.47078 66.6667,40.28519 17.9667,10.8144 40.1667,24.24807 49.3333,29.8526 9.1667,5.60454 28.9134,17.51734 43.8816,26.47291 29.7797,17.81739 38.2455,24.92577 45.0868,37.85779 7.0711,13.36611 9.7002,24.29083 9.6825,40.23218 -0.026,23.70148 -4.8647,35.70038 -21.0775,52.27288 -10.698,10.93541 -9.1205,9.88751 -74.24,49.31341 -15.4,9.32375 -45.1,27.32053 -66,39.99285 -20.9,12.67231 -42.2,25.556 -47.3334,28.63042 -5.1333,3.07442 -20.4333,12.37937 -33.99996,20.67767 -13.56667,8.2983 -31.86667,19.4069 -40.66667,24.68578 -8.8,5.27888 -21.94144,13.31235 -29.2032,17.85216 -7.26176,4.53981 -15.51283,9.43248 -18.33571,10.87261 l -5.13251,2.61841 z"/>
</svg>
