<?xml version="1.0" encoding="UTF-8" standalone="no"?>
<!-- Created with Inkscape (http://www.inkscape.org/) -->

<svg
   version="1.1"
   id="svg1"
   width="2354.6667"
   height="1522.6667"
   viewBox="0 0 2354.6667 1522.6667"
   sodipodi:docname="LogoFull.svg"
   xml:space="preserve"
   inkscape:version="1.4.3 (0d15f75042, 2025-12-25)"
   xmlns:inkscape="http://www.inkscape.org/namespaces/inkscape"
   xmlns:sodipodi="http://sodipodi.sourceforge.net/DTD/sodipodi-0.dtd"
   xmlns="http://www.w3.org/2000/svg"
   xmlns:svg="http://www.w3.org/2000/svg"><defs
     id="defs1" /><sodipodi:namedview
     id="namedview1"
     pagecolor="#ffffff"
     bordercolor="#000000"
     borderopacity="0.25"
     inkscape:showpageshadow="2"
     inkscape:pageopacity="0.0"
     inkscape:pagecheckerboard="0"
     inkscape:deskcolor="#d1d1d1"
     inkscape:export-bgcolor="#ffffff1b"
     inkscape:zoom="0.53393167"
     inkscape:cx="1177.1169"
     inkscape:cy="761.33337"
     inkscape:window-width="1025"
     inkscape:window-height="1022"
     inkscape:window-x="0"
     inkscape:window-y="0"
     inkscape:window-maximized="0"
     inkscape:current-layer="g1" /><g
     inkscape:groupmode="layer"
     inkscape:label="Image"
     id="g1"><path
       style="fill:#ffffff"
       d="m 261.43359,1491.8837 c -14.04425,-2.7554 -29.73987,-10.3224 -31.63053,-15.2494 -0.63187,-1.6466 10.66356,-25.2273 14.50591,-30.2829 1.54724,-2.0358 2.54142,-1.8057 11.69104,2.7061 8.70249,4.2914 11.21101,4.9252 19.33333,4.8849 13.46173,-0.067 20.64127,-3.8054 26.36983,-13.7319 8.85393,-15.342 9.5304,-10.8027 -7.55,-50.6634 -8.3776,-19.5509 -21.53376,-49.947 -29.2359,-67.547 -27.79567,-63.5153 -34.09145,-78.6839 -33.07965,-79.7 0.56594,-0.5683 11.10558,-0.8683 23.42142,-0.6667 l 22.39243,0.3667 7.9123,18 c 4.35177,9.9 9.1229,21 10.60251,24.6666 4.50568,11.1657 36.18548,85.2935 36.7156,85.9112 1.22112,1.4227 3.7415,-3.4657 11.69081,-22.6746 4.68191,-11.3134 12.83285,-30.7699 18.11321,-43.2366 5.28037,-12.4666 13.37459,-31.6666 17.98717,-42.6666 l 8.3865,-20 21.76414,0.215 c 11.97027,0.1183 21.935,0.7277 22.14384,1.3542 0.20883,0.6265 -2.84533,8.6298 -6.78703,17.785 -3.9417,9.1552 -18.97493,44.2458 -33.40718,77.9791 -14.43225,33.7333 -30.75398,71.8333 -36.27051,84.6667 -5.51653,12.8333 -12.68582,27.6139 -15.93175,32.8458 -6.93659,11.1806 -20.56384,24.421 -30.11703,29.2619 -12.56319,6.3663 -33.46114,8.8286 -49.02046,5.7759 z M 96.779668,1427.8579 c -24.671598,-3.5983 -63.934201,-20.1373 -68.62876,-28.9092 -1.074856,-2.0084 0.259626,-5.9132 6.509186,-19.0466 4.323678,-9.0861 8.378819,-16.6928 9.011425,-16.9036 0.632607,-0.2109 6.073793,2.5757 12.091526,6.1925 23.597008,14.1822 44.506365,20.095 71.168135,20.1249 26.28592,0.029 41.22,-6.412 47.00125,-20.273 4.58341,-10.9891 1.01752,-23.1873 -8.64822,-29.5837 -7.12446,-4.7148 -25.34548,-10.8109 -44.20065,-14.7879 -31.926455,-6.7341 -51.443711,-14.175 -65.914684,-25.1295 -15.935356,-12.0631 -20.713022,-21.5864 -21.565437,-42.986 -0.930456,-23.3588 4.264514,-37.1804 19.23986,-51.1891 30.407707,-28.4449 97.821041,-33.4196 145.183681,-10.7136 17.02313,8.161 16.76289,7.336 8.58699,27.2209 -3.79749,9.236 -7.32962,16.7927 -7.84918,16.7927 -0.51956,0 -7.76328,-3.0524 -16.09717,-6.7832 -24.70268,-11.0585 -44.07377,-14.6283 -65.08359,-11.9938 -13.2185,1.6574 -20.598539,4.6911 -28.284394,11.6268 -6.608491,5.9635 -9.299633,11.512 -9.299633,19.1736 0,15.8946 9.437221,21.5071 56.895007,33.8365 37.0811,9.6336 45.38784,12.436 56.9526,19.2139 14.78944,8.6679 23.85284,20.6342 28.16351,37.184 10.79341,41.4387 -21.03513,80.0088 -71.77426,86.9766 -12.06759,1.6572 -41.96424,1.6331 -53.457192,-0.043 z m 652.112542,-0.5564 c -22.02705,-4.1785 -44.92941,-16.9518 -57.31298,-31.965 -15.25819,-18.4982 -21.23779,-35.5312 -21.29877,-60.6698 -0.0946,-39.0049 18.07542,-68.7284 51.92334,-84.9388 14.4468,-6.9189 21.86733,-8.5167 43.12956,-9.2869 29.06976,-1.0531 44.58573,3.1799 64.96823,17.7246 7.70923,5.5012 20.36511,20.0643 20.36511,23.4341 0,1.5424 -5.43657,6.2921 -7.27529,6.356 -0.7014,0.024 -6.91759,3.4114 -13.81375,7.5267 l -12.53847,7.4824 -8.18625,-8.0866 c -4.95105,-4.8908 -11.34784,-9.5603 -16.18625,-11.8157 -7.30106,-3.4033 -9.33963,-3.7291 -23.33333,-3.7291 -13.87797,0 -16.06354,0.3422 -23.02656,3.6051 -4.27513,2.0033 -10.5961,6.5853 -14.22681,10.3128 -21.67203,22.2499 -20.73431,61.812 1.95664,82.5502 10.48798,9.5855 19.21883,12.6787 35.9634,12.7413 19.88757,0.074 30.17672,-4.9483 42.20601,-20.6033 l 3.53934,-4.6061 16.46066,8.5389 c 9.05336,4.6963 17.19289,9.1051 18.08785,9.7971 2.73383,2.1141 -3.02034,11.3794 -13.47244,21.6932 -10.4145,10.2768 -25.57433,18.8202 -40.15476,22.6296 -11.7184,3.0617 -35.15173,3.7039 -47.77448,1.3093 z m 565.77449,0.7254 c -31.3152,-4.0859 -60.849,-24.0616 -73.1306,-49.463 -7.6735,-15.8708 -10.0596,-26.7369 -9.9324,-45.2305 0.1731,-25.1467 6.2221,-42.5325 20.8325,-59.8761 10.9438,-12.9911 27.9835,-24.2872 43.6576,-28.9419 25.0197,-7.4301 57.0705,-6.0381 79.1392,3.4371 29.6492,12.7298 48.903,38.9649 54.3609,74.0719 3.2325,20.7919 -2.9048,46.0536 -16.0989,66.265 -7.7576,11.8834 -15.0917,18.4997 -29.6775,26.773 -21.4055,12.1414 -43.5869,16.3 -69.1508,12.9645 z m 38.3634,-43.3054 c 10.8941,-4.9228 22.7835,-17.3389 27.0983,-28.2987 2.5074,-6.3691 3.0642,-10.3789 3.1134,-22.4227 0.054,-13.2039 -0.3193,-15.5667 -3.7425,-23.691 -7.1147,-16.886 -19.8364,-27.2434 -38.1529,-31.0625 -21.8401,-4.5538 -45.7572,5.5693 -56.5106,23.9185 -8.0697,13.7699 -9.7773,38.5702 -3.7298,54.1683 5.3854,13.8905 18.837,25.5585 34.7507,30.1431 10.3067,2.9692 27.2913,1.7105 37.1734,-2.755 z m 208.3033,43.7096 c -11.2399,-1.8181 -22.3727,-4.9777 -32.5508,-9.2383 -37.4724,-15.6863 -62.1017,-43.9042 -72.3731,-82.9183 -4.8859,-18.558 -4.846,-43.24 0.1004,-62.1793 11.0011,-42.1225 39.8667,-73.2997 79.4902,-85.8561 15.6343,-4.9544 19.1642,-5.6615 34.2617,-6.8631 38.8915,-3.0955 72.2568,6.5009 97.4866,28.0385 6.095,5.203 11.4563,10.4362 11.9141,11.6292 0.5991,1.561 -3.0505,5.8307 -13.0173,15.2294 -7.6174,7.1832 -14.8234,13.0603 -16.0134,13.0603 -1.19,0 -6.019,-3.3562 -10.7311,-7.4582 -10.1829,-8.8646 -25.5074,-16.9244 -36.5087,-19.2013 -10.7772,-2.2305 -32.9264,-1.8764 -42.7253,0.6832 -19.5376,5.1034 -41.3252,22.7202 -50.3407,40.704 -6.7083,13.3815 -9.3336,24.6131 -9.3565,40.0289 -0.024,16.0466 1.8546,24.2981 8.7819,38.5767 9.6775,19.9478 28.4287,35.4647 50.9153,42.1334 5.6372,1.6717 12.5288,2.3735 23.3334,2.376 16.584,0 27.5905,-2.23 38.6828,-7.8509 6.8498,-3.471 25.3172,-17.7059 25.3172,-19.5147 0,-0.6291 0.8582,-1.1438 1.9071,-1.1438 2.4605,0 29.2991,25.31 29.8259,28.1272 0.2354,1.2589 -3.9197,6.1938 -10.1081,12.0052 -15.2885,14.3569 -36.5429,24.4593 -60.1329,28.5816 -10.1871,1.7801 -39.6713,2.4232 -48.1587,1.0504 z m 219.3333,-0.4718 c -19.0666,-2.9414 -44.1379,-15.1697 -55.6942,-27.1642 -18.7877,-19.5002 -27.5192,-44.025 -25.9171,-72.795 1.304,-23.4157 9.001,-42.3562 23.4274,-57.6489 20.9823,-22.2423 46.3911,-31.4867 82.4871,-30.011 24.4897,1.0012 40.9248,6.7023 58.3252,20.2321 28.2368,21.9558 40.9984,62.3104 31.2112,98.6958 -4.0848,15.1862 -15.3197,33.6797 -26.8308,44.1657 -8.9101,8.1166 -27.7199,18.133 -41.0088,21.8377 -11.5768,3.2274 -34.0069,4.538 -46,2.6878 z m 32.758,-40.7714 c 23.5352,-6.9725 37.685,-27.4577 37.4764,-54.2561 -0.2169,-27.8645 -19.2369,-50.6377 -45.288,-54.2245 -30.4079,-4.1866 -55.5496,15.1421 -60.35,46.3966 -3.4371,22.3785 6.3506,45.6901 23.6805,56.4006 11.9545,7.3883 30.6592,9.7783 44.4811,5.6834 z m 180.1194,40.7437 c -17.2275,-3.0916 -40.7733,-16.1516 -52.1672,-28.9352 -7.8953,-8.8583 -14.675,-21.398 -18.921,-34.9963 -2.6739,-8.5634 -3.1211,-12.7776 -3.113,-29.3334 0.01,-20.8899 2.4193,-33.0412 9.2049,-46.432 12.2405,-24.1555 36.0838,-41.6501 64.1189,-47.0462 9.1099,-1.7535 30.4889,-1.6205 39.3662,0.2449 9.6196,2.0213 24.488,9.004 31.9672,15.0128 l 6,4.8204 0.3512,-43.8927 0.3512,-43.8927 16.9821,-0.4073 c 9.3402,-0.2239 19.5321,-0.2227 22.6488,0 l 5.6667,0.41 v 125.9234 125.9233 l -3.6667,0.1791 c -8.9305,0.4361 -39.5667,-0.3014 -40.2339,-0.9685 -0.4059,-0.4059 -0.5397,-4.5944 -0.2973,-9.3077 0.2424,-4.7132 0.015,-8.5696 -0.5047,-8.5696 -0.52,0 -2.9508,1.7608 -5.4018,3.9128 -6.3272,5.5554 -15.5128,10.7039 -25.6835,14.3957 -10.0468,3.6468 -34.2698,5.1813 -46.6681,2.9564 z m 48.2035,-43.7078 c 9.0826,-4.4713 18.1683,-13.4938 22.8529,-22.6937 9.5362,-18.7282 7.7638,-44.3441 -4.2591,-61.5534 -10.9254,-15.6382 -25.2404,-22.1031 -46.6732,-21.0784 -15.0431,0.7192 -23.5778,4.6046 -33.9111,15.438 -11.0374,11.5716 -13.6998,19.398 -13.7194,40.3304 -0.014,15.2931 0.2781,17.2952 3.5487,24.2929 9.549,20.4302 27.1945,30.7631 51.216,29.9912 10.5517,-0.3391 13.2855,-0.9561 20.9452,-4.727 z m 194.2525,43.7945 c -31.7459,-3.0547 -64.0012,-24.0948 -76.5155,-49.9111 -9.293,-19.171 -12.4793,-45.0048 -8.0387,-65.1773 7.1173,-32.3326 30.5478,-57.8794 62.9986,-68.6886 9.195,-3.0628 12.3661,-3.4133 31.5556,-3.4871 17.0702,-0.066 22.9145,0.4054 29.2457,2.3573 42.8362,13.2059 67.5755,48.5813 65.8481,94.1578 l -0.4272,11.2692 -72.3333,-0.2283 -72.3333,-0.2283 v 3.0306 c 0,5.2786 6.5346,16.3991 13.422,22.8415 16.6495,15.5737 44.2212,20.6003 68.506,12.4895 7.7563,-2.5905 20.2217,-9.9407 23.4446,-13.8242 0.8913,-1.0739 2.2971,-1.9017 3.124,-1.8395 0.8268,0.062 6.8907,6.1502 13.4751,13.5289 l 11.9718,13.4158 -7.7193,7.0151 c -20.1012,18.2675 -51.1597,26.6527 -86.2242,23.2787 z m 59.648,-114.5936 c -0.3867,-2.8832 -2.0484,-7.9358 -3.6927,-11.2281 -12.9398,-25.9094 -49.8688,-34.3425 -75.6006,-17.264 -10.6425,7.0634 -18.5233,18.1164 -20.963,29.4008 l -0.9369,4.3333 h 50.9481 50.9482 z m -1698.55625,112.1623 -3.57484,-0.413 -0.53178,-54.9203 c -0.4266,-44.0572 -0.93114,-56.2389 -2.5508,-61.587 -6.189,-20.4357 -18.96703,-29.2623 -41.87783,-28.9278 -18.18368,0.2655 -30.10528,5.9042 -38.61937,18.2663 -9.1647,13.3067 -9.85446,18.6256 -9.89839,76.3282 l -0.0388,51 h -22.66667 -22.66667 v -91.3079 -91.308 l 3,-0.7427 c 1.65,-0.4085 11.1,-0.5699 21,-0.3587 l 18,0.384 0.38726,11 c 0.21299,6.05 0.84529,11 1.40511,11 0.55982,0 3.08556,-2.1463 5.61275,-4.7695 20.85647,-21.6492 70.76628,-25.9811 99.90321,-8.6711 11.00233,6.5363 21.83,17.9028 26.24904,27.5553 7.56238,16.5184 7.54624,16.3506 8.09678,84.2186 0.48734,60.0787 0.39901,63.0066 -1.90488,63.1422 -6.6013,0.3886 -36.19917,0.4725 -39.3241,0.1114 z m 292.84591,0.027 -9.3956,-0.3863 -0.20555,-125.2422 c -0.12825,-78.1386 0.27216,-125.5374 1.06462,-126.0272 1.68393,-1.0407 42.25904,-0.9921 43.94951,0.053 0.82288,0.5086 1.31596,17.3653 1.31596,44.9877 v 44.1745 l 4.14193,-4.2365 c 7.59249,-7.7658 22.46108,-14.9831 36.52474,-17.7294 8.74794,-1.7083 30.08536,-1.6503 39.33333,0.1068 19.9848,3.7971 41.3543,20.2084 49.3897,37.9301 7.6241,16.8146 7.9024,19.8211 7.9239,85.6006 0.018,56.2212 -0.1337,60.2143 -2.3136,60.733 -1.8682,0.4445 -30.4405,0.3506 -40.6667,-0.1337 -2.1798,-0.1032 -2.3346,-3.5097 -2.353,-51.7772 -0.021,-55.6303 -0.6172,-61.8306 -7.1798,-74.6922 -4.035,-7.908 -9.1072,-12.7473 -16.8005,-16.0291 -20.6286,-8.7996 -47.41421,-1.5628 -59.47653,16.069 -8.67396,12.679 -9.07301,15.8581 -9.19682,73.2669 -0.0612,28.388 -0.57002,52.0733 -1.13067,52.6339 -1.04445,1.0445 -18.17693,1.3871 -34.92492,0.6986 z m 238.38644,0.018 -20.3425,-0.3681 0.3425,-91.6319 0.3425,-91.6319 20.4229,0.2006 c 11.2326,0.1104 20.7829,0.5607 21.2229,1.0007 1.028,1.028 1.4383,4.8651 1.5764,14.7429 l 0.1111,7.9443 5.6667,-5.4841 c 12.7214,-12.3116 27.6528,-18.5313 47.945,-19.9717 l 11.7914,-0.837 -0.3682,21.1811 -0.3682,21.181 -11.3333,0.2085 c -23.951,0.4407 -39.7171,10.9941 -48.2654,32.3072 -2.923,7.2878 -3.0327,9.1608 -3.4607,59.0596 -0.4037,47.0588 -0.6374,51.5737 -2.6913,52 -1.2371,0.2568 -11.4034,0.3012 -22.5918,0.099 z M 790.42112,1017.3222 c -24.66994,-2.8423 -52.1757,-11.3727 -77.75443,-24.11388 -25.50428,-12.70414 -40.54386,-23.65994 -62.00174,-45.16606 -19.75064,-19.79505 -33.92505,-39.06693 -47.1644,-64.12591 -12.26368,-23.21228 -24.36626,-57.1014 -15.68811,-43.92919 6.18115,9.38212 23.97316,30.06609 35.02778,40.72128 32.41875,31.24737 66.56583,50.37863 108.04815,60.5351 21.28973,5.21255 32.48528,6.66357 51.8133,6.71534 63.57988,0.17032 126.16017,-26.86951 177.11446,-76.528 51.16187,-49.86079 86.75027,-108.79905 131.29017,-217.43085 12.4871,-30.45595 23.9503,-61.03856 43.7298,-116.66667 16.8642,-47.42916 20.5366,-57.53596 44.5712,-122.66667 18.3467,-49.71711 19.3193,-52.19185 34.5844,-88.00001 27.4011,-64.27614 58.4209,-121.59953 84.874,-156.84378 16.1038,-21.45549 42.5931,-51.48687 56.1936,-63.70757 22.5144,-20.230282 54.4528,-42.230943 79.4866,-54.754147 23.8229,-11.917431 63.1491,-23.897141 90.1208,-27.45292 17.4384,-2.298968 55.0433,-0.87085 72,2.734339 62.597,13.308823 120.6689,53.625079 154.6386,107.357408 14.4729,22.89295 36.5556,74.14762 35.1317,81.54178 -0.2923,1.51744 -4.3924,-3.14145 -11.9844,-13.6176 -19.2313,-26.53733 -45.7397,-52.4498 -71.1192,-69.52039 -45.2042,-30.40497 -107.8743,-45.07713 -156,-36.522324 -23.3509,4.150844 -51.4049,12.842594 -67.5817,20.938264 -29.7761,14.90146 -52.3931,31.59294 -79.1423,58.40737 -18.7182,18.76381 -27.511,29.45094 -46.1612,56.10624 -29.5832,42.28076 -64.19,113.89073 -94.7204,196.00001 -4.3628,11.73333 -9.6254,25.83333 -11.6947,31.33333 -9.0522,24.06014 -27.5388,74.6546 -35.5645,97.33334 -22.9554,64.86731 -56.4522,151.76736 -70.1545,182.00001 -7.0192,15.48719 -36.4542,73.42025 -43.018,84.66667 -34.4293,58.99099 -84.4797,113.4014 -135.89721,147.73562 -15.00281,10.01818 -42.07822,23.96589 -58.49546,30.13357 -12.84163,4.8243 -40.7373,12.3606 -54.9034,14.8327 -14.58957,2.546 -45.60878,3.5631 -59.57891,1.9536 z M 893.30056,768.86492 c -9.14862,-5.39099 -26.83386,-16.07899 -39.30053,-23.75112 -12.46667,-7.67214 -39.76667,-24.33535 -60.66667,-37.02937 -20.9,-12.69402 -47,-28.63344 -58,-35.42092 -11,-6.78749 -28.1,-17.02549 -38,-22.75112 -9.9,-5.72563 -24.3,-14.37047 -32,-19.21076 -7.7,-4.84029 -23.58041,-14.47827 -35.2898,-21.41773 -25.18482,-14.92555 -41.54769,-29.56916 -48.36569,-43.28387 -13.37336,-26.90112 -8.93221,-62.67387 10.58164,-85.23326 6.91328,-7.99224 21.5464,-17.60173 84.40718,-55.42971 41.46322,-24.95149 117.79622,-71.11975 146.34486,-88.51333 15.28273,-9.31118 62.35821,-37.45587 74.56017,-44.57677 6.36443,-3.7142 12.64148,-6.93921 13.949,-7.16669 1.82347,-0.31723 3.38388,1.91621 6.6979,9.58686 12.85826,29.76172 6.7401,66.62397 -15.41415,92.87123 -6.34109,7.51262 -12.09532,12.21447 -27.09435,22.13913 -10.47388,6.93043 -24.74342,15.89771 -31.71009,19.9273 -6.96667,4.02959 -22.26667,13.18579 -34,20.34712 -11.73334,7.16133 -26.13334,15.85846 -32,19.32696 -22.69337,13.41681 -100.047,60.28666 -100.91708,61.14733 -1.00841,0.99752 18.3514,13.35134 56.25041,35.8943 13.56667,8.06968 35.16667,21.07452 48,28.89963 12.83333,7.82512 41.55456,25.13534 63.82494,38.46717 43.98309,26.32981 54.03801,34.08711 63.99767,49.37379 11.39072,17.48315 17.90402,45.0414 14.82114,62.70932 -2.58805,14.83203 -9.72137,32.8963 -12.99028,32.8963 -0.57882,0 -8.53764,-4.41081 -17.68627,-9.80179 z m 559.65444,3.4283 c -13.6745,-25.12458 -11.3614,-61.50403 5.5402,-87.13388 12.3192,-18.68115 21.3099,-25.67321 70.8382,-55.09089 32.835,-19.50257 54.1523,-32.47981 71.3333,-43.42522 6.6,-4.20462 24.3,-14.85301 39.3334,-23.66308 23.755,-13.9213 50.1763,-30.04531 51.6532,-31.52222 0.5031,-0.50312 -7.1669,-5.1969 -76.3199,-46.70555 -23.4667,-14.0857 -47.7667,-28.89629 -54,-32.91241 -6.2333,-4.01612 -18.8333,-11.69875 -28,-17.0725 -53.0415,-31.09442 -69.1203,-43.63172 -78.3296,-61.07712 -9.5051,-18.00549 -13.4064,-45.4908 -9.1524,-64.47959 2.5097,-11.20268 8.5945,-24.33665 11.5376,-24.90342 1.0834,-0.20866 10.3641,4.82166 20.6238,11.17848 37.5501,23.26577 113.4128,69.46849 163.9873,99.87328 16.1333,9.69917 39.8333,24.03931 52.6666,31.86696 12.8334,7.82766 34.0464,20.65402 47.14,28.50304 27.6309,16.56336 35.5963,23.64726 42.6272,37.91004 6.7039,13.59915 8.8995,23.26233 8.8995,39.16724 0,16.31997 -2.8834,27.00467 -10.423,38.62316 -9.0525,13.94976 -19.7017,22.22387 -60.7971,47.23716 -21.0844,12.83333 -43.8353,26.6817 -50.5576,30.77415 -6.7223,4.09245 -29.9223,18.12928 -51.5556,31.19295 -21.6334,13.06367 -45.9334,27.78425 -54,32.7124 -8.0667,4.92814 -26.3667,16.04885 -40.6667,24.71266 -14.3,8.66382 -33.054,20.13472 -41.6755,25.49088 -14.0867,8.75141 -25.3408,15.11697 -26.7262,15.11697 -0.2793,0 -2.0688,-2.86807 -3.9767,-6.37349 z"
       id="path1" /></g></svg>
